<?xml version="1.0" encoding="UTF-8"?>
<!DOCTYPE svg PUBLIC "-//W3C//DTD SVG 1.1//EN" "http://www.w3.org/Graphics/SVG/1.1/DTD/svg11.dtd">
<!-- Creator: CorelDRAW X7 -->
<svg xmlns="http://www.w3.org/2000/svg" xml:space="preserve" width="210mm" height="297mm" version="1.1" style="shape-rendering:geometricPrecision; text-rendering:geometricPrecision; image-rendering:optimizeQuality; fill-rule:evenodd; clip-rule:evenodd"
viewBox="0 0 21000 29700"
 xmlns:xlink="http://www.w3.org/1999/xlink">
 <defs>
  <style type="text/css">
   <![CDATA[
    .str0 {stroke:#2B2A29;stroke-width:20}
    .fil1 {fill:#FEFEFE}
    .fil0 {fill:#2B2A29}
    .fil2 {fill:black}
   ]]>
  </style>
 </defs>
 <g id="Слой_x0020_1">
  <metadata id="CorelCorpID_0Corel-Layer"/>
  <circle class="fil0 str0" cx="10914" cy="12687" r="8165"/>
  <path class="fil1" d="M6604 8821l8530 0 0 7980 -8530 0 0 -7980zm8332 7745l-8114 0 8114 0z"/>
  <path class="fil2" d="M10237 10260c-589,90 -992,556 -920,1178 112,971 1368,1182 1864,529 156,-207 273,-466 226,-824 -31,-237 -188,-513 -373,-665 -201,-165 -518,-261 -797,-218zm-3230 -919c-38,127 -20,252 -20,428l0 3073c0,382 -23,3406 12,3508 86,81 70,145 314,143l2380 17c169,4 291,-15 457,-17 162,-3 326,0 488,0 1276,1 2555,-9 3831,1 371,3 286,-362 286,-658 0,-591 18,-6352 -9,-6454 -13,-47 -71,-113 -109,-132 -62,-12 -56,-68 -318,-40 -111,12 -228,10 -340,7 -229,-7 -476,6 -709,6 -473,0 -946,0 -1418,0 -919,0 -1922,-16 -2823,-6 -115,-17 -395,-2 -534,-2 -178,0 -357,0 -536,0 -184,0 -367,0 -551,0 -248,0 -252,-39 -401,126zm3756 5530c-126,13 -104,-33 -195,-195 -49,-89 -103,-162 -149,-242 -223,-385 -388,-600 -716,-892 -142,-126 -309,-256 -495,-311 -423,-127 -864,139 -1133,419l-187 208c-55,65 -137,155 -184,225 -96,145 -288,358 -288,508l0 1292c0,187 -82,153 480,154l6420 -5 1 -1220c-1,-515 35,-437 -63,-965 -46,-249 -175,-588 -275,-784 -242,-472 -552,-937 -1213,-939 -336,-1 -609,194 -825,366 -81,65 -211,207 -280,303 -72,101 -176,245 -239,360 -245,447 -462,985 -594,1481 -28,104 -21,152 -65,237zm-3317 -5244c-36,91 -14,3978 -13,4478 75,-19 71,-45 157,-174l147 -183c53,-61 101,-118 160,-171 31,-28 45,-45 81,-76 291,-257 620,-509 1006,-509 557,0 1099,614 1381,1032l321 498c57,-54 100,-242 130,-340 39,-130 78,-229 122,-352 83,-239 174,-452 286,-678 146,-296 330,-545 556,-750 129,-116 93,-118 343,-272 332,-204 730,-286 1120,-120 775,332 979,1286 1051,1361 14,-23 2,22 13,-34l2 -3714 -220 -9c-564,-12 -6571,-11 -6643,13zm2940 2563c527,0 886,-434 892,-876 13,-840 -1038,-1182 -1543,-668 -159,163 -267,336 -269,636 -2,542 362,908 920,908z"/>
 </g>
</svg>
