<?xml version="1.0" standalone="no"?>
<!DOCTYPE svg PUBLIC "-//W3C//DTD SVG 20010904//EN"
 "http://www.w3.org/TR/2001/REC-SVG-20010904/DTD/svg10.dtd">
<svg version="1.0" xmlns="http://www.w3.org/2000/svg"
 width="1003.000000pt" height="994.000000pt" viewBox="0 0 1003.000000 994.000000"
 preserveAspectRatio="xMidYMid meet">
<metadata>
Created by potrace 1.16, written by Peter Selinger 2001-2019
</metadata>
<g transform="translate(0.000000,994.000000) scale(0.100000,-0.100000)"
fill="#000000" stroke="none">
<path d="M4545 9933 c-94 -8 -350 -46 -470 -69 -1219 -236 -2305 -916 -3048
-1908 -603 -807 -947 -1778 -986 -2783 -49 -1262 357 -2448 1170 -3423 133
-160 429 -456 588 -589 733 -611 1545 -977 2500 -1128 159 -25 186 -27 664
-30 418 -4 519 -2 635 12 891 107 1721 439 2427 970 333 251 677 589 931 916
709 912 1080 2036 1051 3184 -4 132 -14 305 -22 385 -95 904 -426 1758 -960
2475 -277 374 -645 741 -1027 1026 -702 524 -1551 857 -2425 953 -109 12 -240
16 -565 14 -233 -1 -441 -3 -463 -5z m3053 -5040 l2 -2433 -2605 0 -2605 0 0
2428 c0 1336 3 2432 7 2435 3 4 1174 6 2602 5 l2596 -3 3 -2432z"/>
<path d="M2727 7077 c-29 -11 -77 -56 -87 -83 -5 -12 -10 -971 -12 -2131 l-3
-2109 33 -41 c18 -24 47 -46 65 -52 53 -16 1018 -21 2834 -13 1708 7 1712 7
1740 28 15 11 36 37 46 57 18 35 19 113 24 1664 3 896 2 1845 -2 2111 l-7 483
-25 30 c-55 65 137 59 -2334 62 -1237 1 -2260 -2 -2272 -6z m4046 -237 l317 0
0 -1140 c0 -627 -4 -1140 -8 -1140 -5 0 -26 44 -47 98 -140 359 -318 586 -552
701 -104 52 -188 71 -308 71 -152 0 -277 -39 -438 -137 -126 -76 -313 -264
-414 -415 -126 -190 -267 -520 -383 -895 -18 -56 -38 -109 -44 -119 -11 -14
-27 6 -115 145 -148 232 -209 310 -356 457 -264 266 -476 355 -715 298 -220
-51 -531 -298 -727 -576 -30 -43 -61 -78 -69 -78 -12 0 -14 187 -12 1354 2
745 7 1358 11 1363 11 11 1609 21 2682 16 473 -1 1003 -3 1178 -3z m-468
-1545 c213 -45 388 -199 544 -480 103 -185 180 -399 224 -624 19 -98 21 -149
24 -684 l4 -577 -2103 2 -2103 3 -3 448 c-3 523 -11 477 121 662 138 192 332
400 440 474 86 58 214 112 304 128 215 37 392 -51 659 -329 60 -63 137 -154
170 -204 78 -114 217 -341 255 -416 26 -51 33 -58 59 -58 16 0 32 5 35 10 4 6
20 63 36 128 129 510 414 1074 652 1288 65 58 228 167 292 194 116 50 258 63
390 35z"/>
<path d="M4535 6430 c-192 -51 -335 -159 -417 -316 -51 -97 -71 -180 -71 -299
0 -290 158 -512 429 -601 80 -26 102 -29 219 -29 110 0 141 4 200 23 134 45
235 118 306 224 176 258 170 541 -16 786 -142 187 -412 275 -650 212z m260
-85 c159 -33 314 -144 384 -274 111 -208 73 -468 -94 -637 -115 -116 -264
-172 -426 -161 -266 19 -453 173 -504 414 -41 192 2 361 124 495 140 152 311
206 516 163z"/>
</g>
</svg>
