<svg id="Слой_1" data-name="Слой 1" xmlns="http://www.w3.org/2000/svg" viewBox="0 0 439.61 440.69"><defs><style>.cls-1{fill:#1d1d1b;}</style></defs><title>logo_stena s kartinami</title><path class="cls-1" d="M405.82,253.81c-6.45-17.42-14.44-34-25.39-49.14s-24.87-25-43.46-27.44c-12.86-1.67-25,.88-36.62,7.16-19.52,10.51-32.57,27-43.58,45.38-17.32,29-29,60.4-37.93,92.84-1.36,4.92-2.18,10-3.58,14.89-.38,1.37-1.84,3.29-2.95,3.39-1.55.14-3.37-1-4.81-2-.84-.57-1.16-1.91-1.74-2.89-9-15.15-17.41-30.76-27.3-45.34-11.17-16.46-24.76-31-41.49-42.14-15.71-10.45-32.21-9.83-48.65-1.75-10.7,5.26-19.73,12.8-27.93,21.48A256.14,256.14,0,0,0,27.1,312.65V292.08c4.92-6.54,9.56-13.33,14.82-19.59,12.47-14.82,26.52-27.85,43.86-37,18.4-9.68,36.41-9.2,54.21,1.66,20.44,12.46,35.59,30.09,48.69,49.68,6.25,9.35,12,19,18.06,28.52.75,1.18,1.55,2.33,3,4.45a66.34,66.34,0,0,0,2.79-6.07c5.95-17.6,11.44-35.36,17.83-52.79,10.42-28.42,25-54.38,48-74.74,13.9-12.34,29.91-21,48.85-22.24,17.5-1.13,32.59,5.61,45.91,16.46,17.72,14.43,27.7,34,35.94,54.73a34.17,34.17,0,0,0,3.51,7.06"/><path class="cls-1" d="M251.39,130.94c-1.74,18.79-9.34,39.27-30.9,51.42-34,19.15-80.22.26-87.84-40.28C129,122.77,131,104.54,143,88.59c22.14-29.36,66.33-35.63,92.74-4.17C245.76,96.34,251.54,110.34,251.39,130.94Zm-59,48.46.3,1c5.93-1.47,12.08-2.36,17.75-4.52,23.27-8.85,35.43-32.69,31.75-57.78-3.16-21.62-16.07-36.22-37-42.57-17.23-5.22-33.65-3-47.41,9.6a53.62,53.62,0,0,0-17.17,33.4c-2,14.44.41,27.91,8.54,39.94C159.33,173.71,174.58,179.36,192.34,179.4Z"/></svg>